<svg xmlns="http://www.w3.org/2000/svg" viewBox="0 0 4398 662" style="enable-background:new 0 0 4398 662" xml:space="preserve"><path d="M859.2 193.7h33.2v162.4c0 48.8 26.4 79.6 75.6 79.6s75.6-30.8 75.6-79.6V193.7h33.2v162.8c0 66.4-36.4 108.8-108.8 108.8s-108.8-42.8-108.8-108.4V193.7zM1219.2 193.7H1338c46.4 0 74.8 28 74.8 68 0 33.6-22.4 56-46.8 61.2 28.4 4.4 52 33.6 52 65.6 0 42.8-28.4 72-77.2 72h-121.6V193.7zm113.2 115.6c30 0 46-18.4 46-42.8 0-24-16-43.2-46-43.2h-80v86h80zm1.6 121.6c31.2 0 49.6-17.6 49.6-46 0-24.4-16.8-46-49.6-46h-81.6v92h81.6zM1550.8 193.7h33.2v266.8h-33.2V193.7zM1944 425.7l25.2 27.2-23.2 20-25.6-27.6c-20.4 12.8-44.8 20-72.4 20-79.2 0-132.4-59.2-132.4-138s53.2-138 132.4-138c78.8 0 132.4 59.2 132.4 138 0 39.2-13.2 73.6-36.4 98.4zm-45.2-3.6-38-41.2 23.2-19.6 37.6 40.4c15.6-18.8 24.4-44.8 24.4-74.4 0-62.4-38.4-108.4-98-108.4-60 0-98 46-98 108.4 0 62 38 108.4 98 108.4 19.6 0 36.4-4.8 50.8-13.6zM2112.4 193.7h33.2v162.4c0 48.8 26.4 79.6 75.6 79.6 49.2 0 75.6-30.8 75.6-79.6V193.7h33.2v162.8c0 66.4-36.4 108.8-108.8 108.8s-108.8-42.8-108.8-108.4V193.7zM2472.4 193.7h33.2v266.8h-33.2V193.7zM2714 223.3h-84.4v-29.6H2832v29.6h-84.8v237.2H2714V223.3zM3033.6 347.7l-105.2-154h38.8l82.8 124 82.8-124h38.8l-104.8 154v112.8h-33.2V347.7zM3469.6 193.7h91.2c82.8 0 136.8 58 136.8 133.6 0 76-54 133.2-136.8 133.2h-91.2V193.7zm91.2 237.2c64.8 0 102.4-46.4 102.4-103.6 0-57.6-36.4-104-102.4-104h-58v207.6h58zM3982.8 401.3h-135.2l-23.6 59.2h-36.8l107.2-266.8h41.2l107.6 266.8h-36.8l-23.6-59.2zm-125.6-29.6h115.6l-57.6-148.4-58 148.4zM4264.8 189.3c78.8 0 132.4 59.2 132.4 138s-53.6 138-132.4 138c-79.2 0-132.4-59.2-132.4-138s53.2-138 132.4-138zm0 29.6c-60 0-98 46-98 108.4 0 62 38 108.4 98 108.4 59.6 0 98-46.4 98-108.4 0-62.4-38.4-108.4-98-108.4zM581.8 181.2c0-10.2-5.7-19.9-14.6-25.2L305.4 5c-4.4-2.7-9.3-4-14.6-4-4.9 0-10.2 1.3-14.6 4L14.7 156C5.9 161.3.1 170.6.1 181.2v302.6c0 10.2 5.7 19.9 14.6 25.2l261.9 151c8.8 5.3 19.9 5.3 28.7 0l261.9-151.1c8.8-5.3 14.6-14.6 14.6-25.2V181.2zm-52.5 276.1c0 11.9-6.2 23-16.3 28.7L307.1 607.4c-4.9 3.1-10.6 4.4-16.3 4.4-5.7 0-11-1.3-16.3-4.4L68.6 486c-10.2-5.7-16.3-16.8-16.3-28.7V238.6c0-5.3 2.7-10.6 7.5-13.3 4.9-2.7 10.2-2.7 15 0l35.3 20.8c8.4 4.9 13.3 14.6 19.4 25.6 1.3 2.2 2.2 4.4 3.5 6.2 15.5 27.8 23 57.4 30 86.1 13.3 52.6 26.5 106.9 94.1 124.6 22.1 5.7 45.9 5.7 68 0 67.1-17.7 80.8-72 94.1-124.6 7.1-28.7 14.6-58.3 30-86.1 1.3-2.2 2.2-4.4 3.5-6.2 5.7-11 11-20.3 19.4-25.6l35.3-20.8c4.4-2.7 10.2-2.7 15 0 4.9 2.7 7.5 7.5 7.5 13.3v218.6h-.6zm-254-397.1c9.7-5.7 21.6-5.7 31.4 0l178 105.6c4.4 2.7 7.1 4.4 7.1 9.7 0 5.3-2.7 8.4-7.1 11l-34 20.3c-15 8.8-22.5 23-29.2 35.8l-.4.9c-.9 1.8-1.8 3.1-2.7 4.9-16.8 30-29.2 61.8-36.2 90.1-14.1 54.8-19.4 91-65.4 102.9-8.4 2.2-17.2 3.1-25.6 3.1-8.8 0-17.2-1.3-25.6-3.1-45.9-11.9-51.7-48.1-65.4-103.4-7.1-28.3-19.4-60.1-36.2-90.1-.9-1.3-1.8-3.1-2.7-4.4l-.4-1.3c-6.6-12.4-14.6-26.9-29.2-35.8l-34-20.3c-4.4-2.7-7.1-5.7-7.1-11s2.7-7.1 7.1-9.7c.1-.1 177.6-105.2 177.6-105.2z"/></svg>